<?xml version="1.0" encoding="UTF-8"?><svg id="Capa_1" xmlns="http://www.w3.org/2000/svg" width="208" height="64" xmlns:xlink="http://www.w3.org/1999/xlink" viewBox="0 0 208 64"><defs><style>.cls-1{fill:none;}.cls-2{clip-path:url(#clippath-1);}.cls-3{fill:#023739;}.cls-4{clip-path:url(#clippath);}</style><clipPath id="clippath"><rect class="cls-1" x="4.25" y="8.54" width="199.5" height="46.92"/></clipPath><clipPath id="clippath-1"><rect class="cls-1" x="4.25" y="8.54" width="199.5" height="46.92"/></clipPath></defs><g id="HORverde"><g class="cls-4"><polygon class="cls-3" points="59.7 29.61 59.7 16 68.87 16 68.87 17.6 61.5 17.6 61.5 21.83 67.89 21.83 67.89 23.43 61.5 23.43 61.5 29.61 59.7 29.61"/><g class="cls-2"><path class="cls-3" d="M81.13,16.27h1.81v7.86c0,1.37-.15,2.45-.46,3.26-.31.8-.87,1.46-1.67,1.96-.8.5-1.86.75-3.17.75s-2.31-.22-3.12-.66c-.81-.44-1.39-1.07-1.73-1.91-.34-.83-.52-1.97-.52-3.41v-7.86h1.81v7.85c0,1.18.11,2.05.33,2.61.22.56.6.99,1.13,1.29.53.3,1.18.46,1.96.46,1.32,0,2.26-.3,2.82-.9.56-.6.84-1.76.84-3.46v-7.85Z"/><polygon class="cls-3" points="86.94 29.77 86.94 16.16 88.79 16.16 95.93 26.84 95.93 16.16 97.66 16.16 97.66 29.77 95.81 29.77 88.67 19.09 88.67 29.77 86.94 29.77"/><path class="cls-3" d="M101.75,29.75v-13.6h4.69c1.06,0,1.87.06,2.42.19.78.18,1.45.5,2,.97.72.61,1.26,1.38,1.61,2.32.36.94.53,2.02.53,3.23,0,1.03-.12,1.95-.36,2.75-.24.8-.55,1.46-.93,1.98-.38.52-.79.93-1.24,1.24-.45.3-.99.53-1.62.68-.63.15-1.36.23-2.19.23h-4.91ZM103.56,28.15h2.9c.9,0,1.6-.09,2.11-.25.51-.17.92-.4,1.22-.71.43-.43.76-1,1-1.73.24-.72.36-1.6.36-2.63,0-1.43-.23-2.52-.7-3.29-.47-.77-1.03-1.28-1.7-1.54-.48-.18-1.26-.28-2.33-.28h-2.86v10.41Z"/><path class="cls-3" d="M115.05,29.88l5.22-13.6h1.98l5.54,13.6h-2.05l-1.57-4.12h-5.73l-1.48,4.12h-1.91ZM118.97,24.29h4.64l-1.42-3.77c-.42-1.15-.75-2.09-.97-2.84-.19.89-.44,1.76-.75,2.62l-1.49,3.99Z"/><path class="cls-3" d="M139.64,25.09l1.81.45c-.38,1.48-1.05,2.61-2.03,3.38-.98.78-2.18,1.16-3.59,1.16s-2.65-.3-3.57-.9c-.92-.6-1.62-1.46-2.09-2.59-.48-1.13-.72-2.35-.72-3.65,0-1.42.27-2.65.81-3.7.54-1.06,1.31-1.86,2.31-2.4,1-.55,2.1-.82,3.3-.82,1.36,0,2.5.35,3.43,1.04.93.69,1.57,1.67,1.94,2.92l-1.77.42c-.32-.99-.77-1.71-1.37-2.16-.6-.45-1.35-.68-2.26-.68-1.04,0-1.92.25-2.62.75s-1.19,1.17-1.48,2.02c-.28.85-.42,1.72-.42,2.61,0,1.16.17,2.17.5,3.03.34.86.86,1.51,1.57,1.93.71.43,1.48.64,2.3.64,1.01,0,1.86-.29,2.55-.87.7-.58,1.17-1.44,1.41-2.59"/><rect class="cls-3" x="144.89" y="16.24" width="1.81" height="13.6"/><path class="cls-3" d="M149.95,22.97c0-2.26.61-4.02,1.82-5.3,1.21-1.27,2.78-1.91,4.7-1.91,1.26,0,2.39.3,3.4.9,1.01.6,1.78,1.44,2.31,2.51.53,1.07.79,2.29.79,3.65s-.28,2.61-.83,3.7c-.56,1.09-1.35,1.91-2.37,2.47-1.02.56-2.12.84-3.31.84-1.28,0-2.43-.31-3.44-.92-1.01-.62-1.77-1.46-2.29-2.53-.52-1.07-.78-2.2-.78-3.39M151.81,23c0,1.64.44,2.92,1.32,3.87.88.94,1.99,1.41,3.31,1.41s2.47-.47,3.34-1.42c.88-.95,1.31-2.3,1.31-4.05,0-1.11-.19-2.07-.56-2.89-.37-.82-.92-1.46-1.64-1.92-.72-.45-1.53-.68-2.43-.68-1.27,0-2.37.44-3.29,1.31-.92.87-1.38,2.33-1.38,4.37M155.08,15.15l1.22-2.6h2.2l-2.03,2.6h-1.39Z"/><polygon class="cls-3" points="166.29 29.75 166.29 16.15 168.14 16.15 175.28 26.83 175.28 16.15 177 16.15 177 29.75 175.15 29.75 168.02 19.07 168.02 29.75 166.29 29.75"/><path class="cls-3" d="M64.95,51.26l-5.25-13.6h1.95l3.53,9.88c.28.79.52,1.53.71,2.23.21-.74.45-1.48.73-2.23l3.67-9.88h1.84l-5.31,13.6h-1.87Z"/><path class="cls-3" d="M71.98,51.31l5.22-13.6h1.98l5.54,13.6h-2.05l-1.57-4.12h-5.73l-1.48,4.12h-1.91ZM75.9,45.72h4.64l-1.42-3.77c-.42-1.15-.75-2.09-.97-2.84-.19.88-.44,1.76-.75,2.62l-1.49,3.99Z"/><polygon class="cls-3" points="86.64 51.21 86.64 37.61 88.45 37.61 88.45 49.62 95.14 49.62 95.14 51.21 86.64 51.21"/><polygon class="cls-3" points="98.03 51.35 98.03 37.74 99.84 37.74 99.84 49.75 106.53 49.75 106.53 51.35 98.03 51.35"/><polygon class="cls-3" points="109.7 51.33 109.7 37.73 119.52 37.73 119.52 39.33 111.5 39.33 111.5 43.51 119.01 43.51 119.01 45.1 111.5 45.1 111.5 49.74 119.84 49.74 119.84 51.33 109.7 51.33"/><path class="cls-3" d="M128.91,51.17v-13.61h4.69c1.06,0,1.87.07,2.42.2.78.18,1.44.5,2,.97.72.61,1.25,1.38,1.61,2.32.36.94.53,2.02.53,3.23,0,1.03-.12,1.95-.36,2.75-.24.8-.55,1.46-.93,1.98-.38.52-.79.93-1.24,1.23-.45.3-.99.53-1.62.68-.63.15-1.36.23-2.19.23h-4.91ZM130.72,49.57h2.9c.9,0,1.6-.09,2.11-.25.51-.17.92-.4,1.22-.71.42-.43.76-1,1-1.73.24-.72.36-1.6.36-2.63,0-1.43-.23-2.52-.7-3.29-.47-.77-1.03-1.28-1.7-1.54-.48-.19-1.26-.28-2.33-.28h-2.85v10.41Z"/><polygon class="cls-3" points="143.61 51.24 143.61 37.63 153.44 37.63 153.44 39.23 145.42 39.23 145.42 43.41 152.92 43.41 152.92 45 145.42 45 145.42 49.64 153.76 49.64 153.76 51.24 143.61 51.24"/><polygon class="cls-3" points="157.19 51.35 157.19 37.74 159 37.74 159 49.75 165.69 49.75 165.69 51.35 157.19 51.35"/><polygon class="cls-3" points="173.38 51.33 173.38 37.72 175.18 37.72 175.18 49.73 181.87 49.73 181.87 51.33 173.38 51.33"/><rect class="cls-3" x="185.07" y="37.78" width="1.81" height="13.6"/><polygon class="cls-3" points="190.56 51.45 190.56 37.85 192.36 37.85 192.36 49.86 199.05 49.86 199.05 51.45 190.56 51.45"/><rect class="cls-3" x="201.94" y="37.76" width="1.81" height="13.6"/><path class="cls-3" d="M21.53,22.86v-13.58c-1.01.28-2,.62-2.96,1.02v12.56H6.02c-.4.96-.74,1.94-1.02,2.96h16.53v-2.96Z"/><path class="cls-3" d="M25.83,27.16V8.54c-1,.08-1.99.22-2.96.42v18.19H4.68c-.2.96-.34,1.95-.43,2.96h21.58v-2.96Z"/><path class="cls-3" d="M13.24,20.59c1.69,0,3.07-1.37,3.07-3.07s-1.37-3.07-3.07-3.07c-.8,0-1.53.31-2.08.82-.06.06-.11.11-.17.17-.51.55-.82,1.28-.82,2.08,0,1.69,1.37,3.07,3.07,3.07"/><path class="cls-3" d="M33.89,25.82h16.53c-.28-1.01-.62-2-1.02-2.96h-12.56v-12.56c-.96-.4-1.94-.74-2.96-1.02v16.53Z"/><path class="cls-3" d="M29.6,30.11h21.58c-.08-1-.22-1.99-.43-2.96h-18.19V8.96c-.97-.2-1.95-.35-2.96-.43v21.58Z"/><path class="cls-3" d="M39.12,17.52c0,1.69,1.37,3.07,3.07,3.07s3.07-1.37,3.07-3.07c0-.8-.31-1.54-.82-2.08-.05-.05-.11-.11-.16-.16-.55-.51-1.28-.82-2.08-.82-1.69,0-3.07,1.37-3.07,3.07"/><path class="cls-3" d="M21.53,38.19H5c.28,1.01.62,2,1.02,2.96h12.56v12.55c.96.4,1.94.74,2.96,1.02v-16.53Z"/><path class="cls-3" d="M25.83,33.89H4.25c.08,1,.22,1.99.43,2.96h18.19v18.19c.96.2,1.95.34,2.96.42v-21.57Z"/><path class="cls-3" d="M16.3,46.49c0-1.69-1.37-3.07-3.07-3.07s-3.07,1.37-3.07,3.07c0,.75.27,1.44.72,1.98.12.13.25.25.37.37.53.45,1.22.72,1.97.72,1.69,0,3.07-1.37,3.07-3.07"/><path class="cls-3" d="M33.89,41.15v13.57c1.01-.28,2-.62,2.96-1.02v-12.55h12.56c.4-.96.74-1.94,1.02-2.96h-16.53v2.96Z"/><path class="cls-3" d="M29.6,36.85v18.61c1-.08,1.99-.22,2.96-.42v-18.19h18.19c.2-.96.34-1.95.43-2.96h-21.58v2.96Z"/><path class="cls-3" d="M42.19,43.42c-1.69,0-3.07,1.37-3.07,3.07s1.37,3.07,3.07,3.07c.75,0,1.44-.27,1.98-.72.12-.12.25-.24.37-.37.45-.53.72-1.22.72-1.98,0-1.69-1.37-3.07-3.07-3.07"/></g></g></g></svg>